<svg xmlns="http://www.w3.org/2000/svg" viewBox="0 0 289 51.84"><defs><style>.cls-1{fill:#2b2b2b;}.cls-2{fill:#b3ca03;}</style></defs><g id="Calque_2" data-name="Calque 2"><g id="Calque_1-2" data-name="Calque 1"><path class="cls-1" d="M89.28,28.39c.48,1.8,2.14,2.85,4.72,2.85,2.17,0,3.5-.75,3.5-2.28,0-2.27-2.86-2.13-5.77-2.85-3.23-.78-7.23-2.27-7.23-7.29,0-4.85,3.66-7.26,9-7.26,4.85,0,8.31,2,9.64,6.21L97.7,19.22c-.58-1.73-1.94-2.68-4.31-2.68-2.17,0-3.09.85-3.09,2.11,0,2,2.27,2.31,5.6,3,3.5.68,7.36,2.18,7.36,7.3,0,4.89-3.42,7.33-9.23,7.33-4.14,0-8.82-1.25-10.18-6.41Z"/><path class="cls-1" d="M117.69,11.56c7.26,0,12.52,5.09,12.52,12.35S125,36.26,117.69,36.26s-12.52-5.09-12.52-12.35S110.43,11.56,117.69,11.56Zm0,19.3c3.93,0,6.78-2.71,6.78-6.95s-2.85-7-6.78-7-6.79,2.71-6.79,7S113.75,30.86,117.69,30.86Z"/><path class="cls-1" d="M133.06,12h5.7V30.49h10.66v5.3H133.06Z"/><path class="cls-1" d="M158.65,31.85l-1.43,3.94h-6L160.38,12h6.48l9.2,23.76H170l-1.43-3.94ZM165,21.94c-.75-2-1.29-3.46-1.32-3.5h-.11s-.57,1.5-1.32,3.47l-1.7,4.75h6.15Z"/><path class="cls-1" d="M195.37,35.79c0-1.36,0-1.5,0-1.67h-.07a10.88,10.88,0,0,1-6.68,2.14,12,12,0,0,1-12.22-12.39,11.87,11.87,0,0,1,12.32-12.31c5.4,0,9.54,3,11.06,6.85l-5.63,1.53a6.29,6.29,0,0,0-5.7-3c-3.84,0-6.31,2.85-6.31,7a6.53,6.53,0,0,0,7,7c3.26,0,5.3-1.42,6-2.44V27.3h-6V22h11.27V35.79Z"/><path class="cls-1" d="M212.1,28h-2.55v7.84h-5.7V12h9c6,0,9.47,3.12,9.47,8a6.76,6.76,0,0,1-4.48,6.76l5.43,9h-6.76Zm1.15-4.55c2.11,0,3.26-1,3.26-3s-1.09-3.16-3.29-3.16h-3.67V23.4Z"/><path class="cls-1" d="M225.74,12h17.31v5.29H231.44V21.4H240v4.75h-8.55v4.34h11.78v5.3H225.74Z"/><path class="cls-1" d="M246.54,12h17.31v5.29h-11.6V21.4h8.55v4.75h-8.55v4.34H264v5.3H246.54Z"/><path class="cls-1" d="M273.08,21.6H273s.07,2.95.07,6v8.15h-5.7V12h5.77l10.11,13.91h.1s0-3.08,0-5.66V12H289V35.79h-5.81Z"/><polygon class="cls-2" points="33.1 34.39 2.88 34.39 13.74 25.5 29.2 25.5 36.65 17.38 65.28 17.38 54.42 26.27 40.56 26.27 33.1 34.39"/><path class="cls-2" d="M22.63,21.73H13.74c0-5.83,2.72-11.37,7.66-15.6A25.27,25.27,0,0,1,37.56,0h30.6L54.9,8.89H37.56C30.66,8.89,22.63,14.5,22.63,21.73Z"/><path class="cls-2" d="M30.43,51.84H0L13.26,43H30.43c6.84,0,15.1-5.73,15.1-12.84h8.89c0,5.83-2.76,11.37-7.77,15.61A25.56,25.56,0,0,1,30.43,51.84Z"/></g></g></svg>